<svg xmlns="http://www.w3.org/2000/svg"
     xmlns:xlink="http://www.w3.org/1999/xlink"
     viewBox="0 0 128 128"
     preserveAspectRatio="xMidYMid meet">
	<defs>
		<style>
			.cls-1 { fill:none; }
			.cls-3 { fill:#339af9; }
			.cls-10,
			.cls-11,
			.cls-12,
			.cls-13,
			.cls-14,
			.cls-15,
			.cls-16,
			.cls-17,
			.cls-18,
			.cls-19,
			.cls-3,
			.cls-4,
			.cls-5,
			.cls-6,
			.cls-7,
			.cls-8,
			.cls-9 {
			fill-rule:evenodd;
			}
			.cls-4 { fill:#ff0; }
			.cls-5 { fill:#79dd2f; }
			.cls-6 { fill:#22cbf9; }
			.cls-7 { fill:#fc0d1b; }
			.cls-8 { fill:#4284f7; }
			.cls-9 { fill:#facf50; }
			.cls-10 { fill:#eb463a; }
			.cls-11 { fill:#f16c42; }
			.cls-12 { fill:#fd9629; }
			.cls-13 { fill:#f7ad52; }
			.cls-14 { fill:#f9b650; }
			.cls-15 { fill:#62ca28; }
			.cls-16 { fill:#8525fb; }
			.cls-17 { fill:#d54dff; }
			.cls-18 { fill:#543d85; }
			.cls-19 { fill:#0e725f; }
		</style>
		<clipPath id="clip-path">
			<path class="cls-1" d="M107.41,105.75a35.13,35.13,0,1,1,0-34.78h25.64a58.72,58.72,0,1,0,0,34.78Z"/>
		</clipPath>
	</defs>
	<title>logo-symbol</title>
	<!-- 
       The outer <g> moves all the content.
       Adjust the translate values until the logo appears centered.
  -->
	<g transform="translate(-12, -24)">
		<g id="Layer_2" data-name="Layer 2">
			<g id="Layer_1-2" data-name="Layer 1">
				<!-- Apply the clip-path inline -->
				<g clip-path="url(#clip-path)">
					<path class="cls-3" d="M95.44,0A108.9,108.9,0,0,0,46.38,41.43L96.06,71.2Z"/>
					<polygon class="cls-4" points="41.95 58.23 12.42 92.46 46.81 129.99 41.95 58.23"/>
					<polygon class="cls-4" points="39.4 40.17 15.23 68.19 43.38 98.9 39.4 40.17"/>
					<path class="cls-5" d="M49.43,52.11A98.27,98.27,0,0,0,0,87.62L43.61,83.5Z"/>
					<polygon class="cls-6" points="84.25 4.26 58.48 25.16 97.32 51.12 84.25 4.26"/>
					<polygon class="cls-7" points="134.96 80.39 96.98 105 135.43 138.6 134.96 80.39"/>
					<path class="cls-8" d="M66.73,44.87l-23.09,34c17.72-20.75,50.73-18.33,66,7L94.29,49.55Z"/>
					<path class="cls-9" d="M1.81,79.37C3,111,24.16,138,52.7,148.33l-6.08-38.52Z"/>
					<path class="cls-10" d="M102.05,101.41l2.13,52.45a83.56,83.56,0,0,0,33-30.93Z"/>
					<path class="cls-11" d="M97.27,112.83,72.86,133.14l29.39,21.77,7-52a43,43,0,0,1-11.94,10Z"/>
					<path class="cls-12" d="M73.15,133.21,49.68,152.76a77.67,77.67,0,0,0,26.12,5.69A79.53,79.53,0,0,0,102.55,155Z"/>
					<polygon class="cls-13" points="44.97 112.35 49.68 152.77 73.15 133.22 44.97 112.35"/>
					<path class="cls-14" d="M42,87.65l2.87,24.66,28.18,20.87L97.5,112.87c-22,12.18-50.17.65-55.46-25.22Z"/>
					<path class="cls-15" d="M44,29.64a75.13,75.13,0,0,0-33.9,28.62L44.41,78.83Z"/>
					<polygon class="cls-16" points="94.29 49.55 104.22 78.83 142.73 70 94.29 49.55"/>
					<polygon class="cls-17" points="136.51 87.91 131.85 59.48 102.43 73.33 136.51 87.91"/>
					<path class="cls-18" d="M142.73,70C132,40.82,108.93,23.83,84,19.2l10.3,30.35Z"/>
					<path class="cls-19" d="M45,10,42,26.84l2.3,58a42.86,42.86,0,0,1,4.23-7.52L66.79,44.87Z"/>
				</g>
			</g>
		</g>
	</g>
</svg>
